<svg width="14" height="25" viewBox="0 0 14 25" fill="none" xmlns="http://www.w3.org/2000/svg">
<path d="M11.8806 3.87993C11.7645 3.76352 11.6266 3.67116 11.4747 3.60815C11.3229 3.54513 11.1601 3.5127 10.9956 3.5127C10.8312 3.5127 10.6684 3.54513 10.5166 3.60815C10.3647 3.67116 10.2268 3.76352 10.1106 3.87993L1.70065 12.2899C1.60794 12.3824 1.5344 12.4923 1.48421 12.6133C1.43403 12.7343 1.4082 12.864 1.4082 12.9949C1.4082 13.1259 1.43403 13.2556 1.48421 13.3766C1.5344 13.4975 1.60794 13.6074 1.70065 13.6999L10.1106 22.1099C10.6006 22.5999 11.3906 22.5999 11.8806 22.1099C12.3706 21.6199 12.3706 20.8299 11.8806 20.3399L4.54065 12.9999L11.8906 5.64993C12.3706 5.15993 12.3706 4.36993 11.8806 3.87993Z" fill="#348AC9"/>
</svg>
