<svg width="1440" height="373" viewBox="0 0 1440 373" fill="none" xmlns="http://www.w3.org/2000/svg">
<path d="M1401.67 359.5C1416.11 366.49 1442 367 1442 367V206L1440.86 44H2L-2 373C-2 373 7.17664 368.544 12.8094 365.243C19.663 361.226 24.2752 359.73 29.7345 353.959C35.4158 347.954 38.175 343.609 40.3127 335.624C42.4492 327.643 40.3127 314.467 40.3127 314.467C40.3127 314.467 54.0986 328.08 64.9951 333.508C74.2743 338.131 80.1227 339.78 90.3827 341.265C102.932 343.082 110.618 343.297 122.822 339.855C135.283 336.341 142.499 332.707 151.736 323.635C160.464 315.064 162.746 307.905 167.956 296.837C173.464 285.135 178.674 265.5 178.674 265.5L232.835 248.883C232.835 248.883 307.872 224.746 357.658 222.085C386.555 220.54 431.705 224.906 431.705 224.906L426.064 227.726L294.894 261.577L240.593 279.912L293.484 267.923C293.484 267.923 373.944 246.878 426.064 250.293C449.423 251.824 462.258 255.34 485.301 259.461C523.322 266.26 543.688 275.092 581.915 280.617C621.804 286.383 644.575 288.073 684.876 287.669C716.073 287.357 733.659 286.288 764.565 282.028C796.616 277.61 814.678 274.41 845.664 265.103C858.76 261.169 878.809 253.819 878.809 253.819C878.809 253.819 891.398 260.217 899.966 262.987C911.427 266.693 918.298 267.494 930.29 268.629C942.902 269.821 950.331 271.229 962.73 268.629C974.445 266.172 981.383 263.85 990.938 256.64C998.095 251.239 1006.45 239.715 1006.45 239.715L1133.39 270.039L1009.98 225.611L1069.22 218.559L1330.17 300.5C1330.17 300.5 1336.99 308.321 1341.17 313C1350.44 323.351 1358.03 332.71 1369.17 341C1379.83 348.921 1389.69 353.696 1401.63 359.479L1401.67 359.5Z" fill="#ECF5FF"/>
<path d="M1390.79 46.5865C1412.64 48.9027 1439.45 74.7949 1439.45 74.7949H1441.57V0.0424805L1098.13 30.3666C1098.13 30.3666 1160.85 34.0131 1201.09 34.5979C1223.12 34.918 1235.68 37.6108 1257.51 34.5979C1266.12 33.4087 1277.25 33.1874 1277.25 33.1874C1277.25 33.1874 1285.19 39.101 1289.95 43.7656C1296.61 50.286 1301.05 53.6942 1309.69 57.1646C1321.5 61.9002 1329.44 60.6498 1342.13 59.9855C1361.82 58.9559 1371.19 44.508 1390.79 46.5865Z" fill="#3E9ADD" fill-opacity="0.1"/>
<path d="M69.2264 159.321L280.085 54.9497L-2 119.124V162.142L43.1335 165.668L69.2264 159.321Z" fill="#3E9ADD" fill-opacity="0.1"/>
</svg>
