<svg width="451" height="97" viewBox="0 0 451 97" fill="none" xmlns="http://www.w3.org/2000/svg">
<rect x="18.0449" y="7" width="414.955" height="90" rx="45" fill="url(#paint0_linear_338_1020)"/>
<rect x="18.5449" y="7.5" width="413.955" height="89" rx="44.5" stroke="#3E9ADD" stroke-opacity="0.2"/>
<path d="M88.4448 42.66V47.772H96.6888V52.524H88.4448V58.068H97.7688V63H82.2888V37.728H97.7688V42.66H88.4448ZM111.881 57.24L116.237 42.912H122.789L115.661 63H108.065L100.937 42.912H107.525L111.881 57.24ZM145.397 52.632C145.397 53.208 145.361 53.808 145.289 54.432H131.357C131.453 55.68 131.849 56.64 132.545 57.312C133.265 57.96 134.141 58.284 135.173 58.284C136.709 58.284 137.777 57.636 138.377 56.34H144.929C144.593 57.66 143.981 58.848 143.093 59.904C142.229 60.96 141.137 61.788 139.817 62.388C138.497 62.988 137.021 63.288 135.389 63.288C133.421 63.288 131.669 62.868 130.133 62.028C128.597 61.188 127.397 59.988 126.533 58.428C125.669 56.868 125.237 55.044 125.237 52.956C125.237 50.868 125.657 49.044 126.497 47.484C127.361 45.924 128.561 44.724 130.097 43.884C131.633 43.044 133.397 42.624 135.389 42.624C137.333 42.624 139.061 43.032 140.573 43.848C142.085 44.664 143.261 45.828 144.101 47.34C144.965 48.852 145.397 50.616 145.397 52.632ZM139.097 51.012C139.097 49.956 138.737 49.116 138.017 48.492C137.297 47.868 136.397 47.556 135.317 47.556C134.285 47.556 133.409 47.856 132.689 48.456C131.993 49.056 131.561 49.908 131.393 51.012H139.097ZM161.964 42.696C164.316 42.696 166.188 43.464 167.58 45C168.996 46.512 169.704 48.6 169.704 51.264V63H163.584V52.092C163.584 50.748 163.236 49.704 162.54 48.96C161.844 48.216 160.908 47.844 159.732 47.844C158.556 47.844 157.62 48.216 156.924 48.96C156.228 49.704 155.88 50.748 155.88 52.092V63H149.724V42.912H155.88V45.576C156.504 44.688 157.344 43.992 158.4 43.488C159.456 42.96 160.644 42.696 161.964 42.696ZM186.258 57.78V63H183.126C180.894 63 179.154 62.46 177.906 61.38C176.658 60.276 176.034 58.488 176.034 56.016V48.024H173.586V42.912H176.034V38.016H182.19V42.912H186.222V48.024H182.19V56.088C182.19 56.688 182.334 57.12 182.622 57.384C182.91 57.648 183.39 57.78 184.062 57.78H186.258ZM217.656 37.728V42.66H210.96V63H204.804V42.66H198.108V37.728H217.656ZM240.761 52.632C240.761 53.208 240.725 53.808 240.653 54.432H226.721C226.817 55.68 227.213 56.64 227.909 57.312C228.629 57.96 229.505 58.284 230.537 58.284C232.073 58.284 233.141 57.636 233.741 56.34H240.293C239.957 57.66 239.345 58.848 238.457 59.904C237.593 60.96 236.501 61.788 235.181 62.388C233.861 62.988 232.385 63.288 230.753 63.288C228.785 63.288 227.033 62.868 225.497 62.028C223.961 61.188 222.761 59.988 221.897 58.428C221.033 56.868 220.601 55.044 220.601 52.956C220.601 50.868 221.021 49.044 221.861 47.484C222.725 45.924 223.925 44.724 225.461 43.884C226.997 43.044 228.761 42.624 230.753 42.624C232.697 42.624 234.425 43.032 235.937 43.848C237.449 44.664 238.625 45.828 239.465 47.34C240.329 48.852 240.761 50.616 240.761 52.632ZM234.461 51.012C234.461 49.956 234.101 49.116 233.381 48.492C232.661 47.868 231.761 47.556 230.681 47.556C229.649 47.556 228.773 47.856 228.053 48.456C227.357 49.056 226.925 49.908 226.757 51.012H234.461ZM251.245 46.26C251.965 45.156 252.865 44.292 253.945 43.668C255.025 43.02 256.225 42.696 257.545 42.696V49.212H255.853C254.317 49.212 253.165 49.548 252.397 50.22C251.629 50.868 251.245 52.02 251.245 53.676V63H245.089V42.912H251.245V46.26ZM260.343 52.92C260.343 50.856 260.727 49.044 261.495 47.484C262.287 45.924 263.355 44.724 264.699 43.884C266.043 43.044 267.543 42.624 269.199 42.624C270.519 42.624 271.719 42.9 272.799 43.452C273.903 44.004 274.767 44.748 275.391 45.684V36.36H281.547V63H275.391V60.12C274.815 61.08 273.987 61.848 272.907 62.424C271.851 63 270.615 63.288 269.199 63.288C267.543 63.288 266.043 62.868 264.699 62.028C263.355 61.164 262.287 59.952 261.495 58.392C260.727 56.808 260.343 54.984 260.343 52.92ZM275.391 52.956C275.391 51.42 274.959 50.208 274.095 49.32C273.255 48.432 272.223 47.988 270.999 47.988C269.775 47.988 268.731 48.432 267.867 49.32C267.027 50.184 266.607 51.384 266.607 52.92C266.607 54.456 267.027 55.68 267.867 56.592C268.731 57.48 269.775 57.924 270.999 57.924C272.223 57.924 273.255 57.48 274.095 56.592C274.959 55.704 275.391 54.492 275.391 52.956ZM306.017 52.632C306.017 53.208 305.981 53.808 305.909 54.432H291.977C292.073 55.68 292.469 56.64 293.165 57.312C293.885 57.96 294.761 58.284 295.793 58.284C297.329 58.284 298.397 57.636 298.997 56.34H305.549C305.213 57.66 304.601 58.848 303.713 59.904C302.849 60.96 301.757 61.788 300.437 62.388C299.117 62.988 297.641 63.288 296.009 63.288C294.041 63.288 292.289 62.868 290.753 62.028C289.217 61.188 288.017 59.988 287.153 58.428C286.289 56.868 285.857 55.044 285.857 52.956C285.857 50.868 286.277 49.044 287.117 47.484C287.981 45.924 289.181 44.724 290.717 43.884C292.253 43.044 294.017 42.624 296.009 42.624C297.953 42.624 299.681 43.032 301.193 43.848C302.705 44.664 303.881 45.828 304.721 47.34C305.585 48.852 306.017 50.616 306.017 52.632ZM299.717 51.012C299.717 49.956 299.357 49.116 298.637 48.492C297.917 47.868 297.017 47.556 295.937 47.556C294.905 47.556 294.029 47.856 293.309 48.456C292.613 49.056 292.181 49.908 292.013 51.012H299.717ZM322.621 63L316.501 54.576V63H310.345V36.36H316.501V51.084L322.585 42.912H330.181L321.829 52.992L330.253 63H322.621ZM332.454 52.92C332.454 50.856 332.838 49.044 333.606 47.484C334.398 45.924 335.466 44.724 336.81 43.884C338.154 43.044 339.654 42.624 341.31 42.624C342.726 42.624 343.962 42.912 345.018 43.488C346.098 44.064 346.926 44.82 347.502 45.756V42.912H353.658V63H347.502V60.156C346.902 61.092 346.062 61.848 344.982 62.424C343.926 63 342.69 63.288 341.274 63.288C339.642 63.288 338.154 62.868 336.81 62.028C335.466 61.164 334.398 59.952 333.606 58.392C332.838 56.808 332.454 54.984 332.454 52.92ZM347.502 52.956C347.502 51.42 347.07 50.208 346.206 49.32C345.366 48.432 344.334 47.988 343.11 47.988C341.886 47.988 340.842 48.432 339.978 49.32C339.138 50.184 338.718 51.384 338.718 52.92C338.718 54.456 339.138 55.68 339.978 56.592C340.842 57.48 341.886 57.924 343.11 57.924C344.334 57.924 345.366 57.48 346.206 56.592C347.07 55.704 347.502 54.492 347.502 52.956ZM370.388 57.78V63H367.256C365.024 63 363.284 62.46 362.036 61.38C360.788 60.276 360.164 58.488 360.164 56.016V48.024H357.716V42.912H360.164V38.016H366.32V42.912H370.352V48.024H366.32V56.088C366.32 56.688 366.464 57.12 366.752 57.384C367.04 57.648 367.52 57.78 368.192 57.78H370.388Z" fill="#348AC9"/>
<rect width="45.0884" height="45.0028" rx="22.5014" transform="matrix(0.984868 0.173308 -0.173989 0.984748 406.594 3.43457)" fill="url(#paint1_linear_338_1020)"/>
<rect x="0.405439" y="0.579028" width="44.0884" height="44.0028" rx="22.0014" transform="matrix(0.984868 0.173308 -0.173989 0.984748 406.701 3.37314)" stroke="#3E9ADD" stroke-opacity="0.2"/>
<path d="M414.553 40.9001C413.851 40.7988 413.286 40.4623 412.859 39.8906C412.431 39.319 412.268 38.6816 412.368 37.9785L414.948 20.1063C415.049 19.4042 415.386 18.8395 415.959 18.4121C416.531 17.9848 417.168 17.8213 417.87 17.9217L419.146 18.1059L419.515 15.5527L422.068 15.9212L421.699 18.4744L431.912 19.9484L432.281 17.3952L434.834 17.7637L434.465 20.3169L435.742 20.5011C436.444 20.6025 437.009 20.9395 437.437 21.5121C437.865 22.0847 438.028 22.7216 437.926 23.4228L435.347 41.2949C435.246 41.9971 434.909 42.5623 434.337 42.9906C433.765 43.4189 433.128 43.5819 432.425 43.4796L414.553 40.9001ZM414.922 38.347L432.794 40.9264L434.636 28.1606L416.764 25.5812L414.922 38.347Z" fill="#348AC9"/>
<path d="M427.831 30.3891C428.107 29.8286 428.939 29.9487 429.045 30.5643L429.345 32.3023C429.392 32.5776 429.612 32.791 429.888 32.8309L431.634 33.0829C432.252 33.1721 432.395 34.0004 431.842 34.2917L430.282 35.1139C430.035 35.2441 429.899 35.5187 429.947 35.794L430.247 37.5319C430.353 38.1476 429.609 38.5395 429.162 38.1038L427.897 36.874C427.697 36.6792 427.394 36.6355 427.147 36.7657L425.587 37.5879C425.034 37.8791 424.432 37.293 424.708 36.7325L425.487 35.1503C425.61 34.8996 425.558 34.598 425.358 34.4032L424.094 33.1734C423.646 32.7377 424.017 31.9836 424.636 32.0728L426.381 32.3248C426.658 32.3647 426.928 32.222 427.052 31.9713L427.831 30.3891Z" fill="#348AC9"/>
<rect width="45.0884" height="45.0028" rx="22.5014" transform="matrix(-0.984868 0.173308 0.173989 0.984748 44.4062 0)" fill="url(#paint2_linear_338_1020)"/>
<rect x="-0.405439" y="0.579028" width="44.0884" height="44.0028" rx="22.0014" transform="matrix(-0.984868 0.173308 0.173989 0.984748 43.5008 0.0790973)" stroke="#3E9ADD" stroke-opacity="0.2"/>
<path d="M19.9867 40.5829C19.2934 40.7332 18.6466 40.6152 18.0464 40.2289C17.4462 39.8425 17.0704 39.3024 16.9191 38.6084L13.0931 20.9611C12.9428 20.2678 13.0613 19.6209 13.4484 19.0205C13.8356 18.4201 14.3753 18.0444 15.0676 17.8934L16.3281 17.6202L15.7816 15.0991L18.3026 14.5525L18.8492 17.0736L28.9334 14.8873L28.3868 12.3663L30.9079 11.8197L31.4545 14.3408L32.715 14.0675C33.4083 13.9172 34.0555 14.0355 34.6568 14.4225C35.258 14.8095 35.6333 15.3494 35.7826 16.042L39.6085 33.6894C39.7588 34.3827 39.6409 35.0298 39.2547 35.6309C38.8686 36.232 38.3284 36.6073 37.634 36.757L19.9867 40.5829ZM19.4401 38.0619L37.0875 34.2359L34.3547 21.6307L16.7073 25.4566L19.4401 38.0619Z" fill="#348AC9"/>
<path d="M28.7562 26.0956C28.819 25.474 29.6405 25.2959 29.9551 25.8357L30.843 27.3594C30.9837 27.6008 31.2638 27.7242 31.5369 27.665L33.2604 27.2913C33.871 27.1589 34.2942 27.8852 33.8781 28.3511L32.7033 29.6665C32.5172 29.8749 32.4865 30.1794 32.6271 30.4208L33.5151 31.9445C33.8297 32.4843 33.2698 33.1112 32.698 32.8595L31.084 32.1487C30.8283 32.0361 30.5292 32.1009 30.3431 32.3093L29.1683 33.6247C28.7522 34.0907 27.9829 33.7519 28.0457 33.1303L28.2229 31.3756C28.251 31.0977 28.0969 30.8332 27.8412 30.7206L26.2272 30.0098C25.6554 29.7581 25.7399 28.9217 26.3504 28.7894L28.074 28.4157C28.347 28.3565 28.5509 28.1282 28.579 27.8503L28.7562 26.0956Z" fill="#348AC9"/>
<defs>
<linearGradient id="paint0_linear_338_1020" x1="225.523" y1="97" x2="225.523" y2="7" gradientUnits="userSpaceOnUse">
<stop stop-color="#F2F8FF"/>
<stop offset="0.541" stop-color="#E2EDF9"/>
<stop offset="1" stop-color="#CBE0F8"/>
</linearGradient>
<linearGradient id="paint1_linear_338_1020" x1="22.5442" y1="45.0028" x2="22.5442" y2="0" gradientUnits="userSpaceOnUse">
<stop stop-color="#F2F8FF"/>
<stop offset="0.541" stop-color="#E2EDF9"/>
<stop offset="1" stop-color="#CBE0F8"/>
</linearGradient>
<linearGradient id="paint2_linear_338_1020" x1="22.5442" y1="45.0028" x2="22.5442" y2="0" gradientUnits="userSpaceOnUse">
<stop stop-color="#F2F8FF"/>
<stop offset="0.541" stop-color="#E2EDF9"/>
<stop offset="1" stop-color="#CBE0F8"/>
</linearGradient>
</defs>
</svg>
